<svg
  xmlns:dc="http://purl.org/dc/elements/1.1/"
  xmlns:cc="http://creativecommons.org/ns#"
  xmlns:rdf="http://www.w3.org/1999/02/22-rdf-syntax-ns#"
  xmlns:svg="http://www.w3.org/2000/svg"
  xmlns="http://www.w3.org/2000/svg"
  viewBox="0 0 117.36 40.86"
  height="40.86"
  width="117.36"
  xml:space="preserve"
  id="svg2"
  version="1.1"><metadata
    id="metadata8"><rdf:RDF><cc:Work
        rdf:about=""><dc:format>image/svg+xml</dc:format><dc:type
          rdf:resource="http://purl.org/dc/dcmitype/StillImage" /></cc:Work></rdf:RDF></metadata><defs
    id="defs6" /><g
    transform="matrix(0.6666666,0,0,-0.6666666,0,40.86)"
    id="g10"><g
      transform="scale(0.1)"
      id="g12"><path
        id="path14"
        style="fill:#231f20;fill-opacity:1;fill-rule:nonzero;stroke:none"
        d="M 16.0742,54.5781 V 34.6797 h 14.0391 c 8.5898,0 18.1211,-0.5313 18.1211,9.7461 0,10.2617 -9.7422,10.1523 -19.9024,10.1523 z m 0,29.7578 V 67.2578 H 32.418 c 8.1679,0 12.9883,2.207 12.9883,8.6992 0,9.7344 -9.2188,8.3789 -20.5313,8.3789 z M 0.988281,22.0039 V 97.0117 H 30.9492 c 11.1016,0 18.4375,-0.3125 24.3047,-6.707 3.1445,-3.457 4.9219,-7.5391 4.9219,-12.2578 0,-6.6992 -3.9805,-13.1953 -10.582,-16.1328 9.4296,-2.7266 14.25,-9.7344 14.25,-17.9102 0,-8.5937 -4.6094,-16.3476 -12.1524,-19.9023 -3.875,-1.7891 -12.2578,-2.0977 -25.1445,-2.0977 H 0.988281" /><path
        id="path16"
        style="fill:#231f20;fill-opacity:1;fill-rule:nonzero;stroke:none"
        d="M 110.879,76.2695 H 125.23 V 22.0039 h -13.41 v 8.1719 c -3.976,-5.8711 -10.789,-9.4336 -18.0153,-9.4336 -6.4961,0 -12.0508,2.832 -14.9805,7.1289 -2.6211,3.875 -3.0429,8.8008 -3.0429,14.1406 V 76.2695 H 90.1367 V 51.3398 c 0,-11.1054 -0.7304,-19.5937 9.0078,-19.5937 4.9215,0 9.3245,2.9336 10.7935,7.5391 0.835,2.5195 0.941,7.4414 0.941,14.1445 v 22.8398" /><path
        id="path18"
        style="fill:#231f20;fill-opacity:1;fill-rule:nonzero;stroke:none"
        d="m 153.305,68.3086 c 4.718,6.0781 10.894,9.2187 18.019,9.2187 6.707,0 12.364,-2.7226 15.297,-7.0195 2.727,-3.9844 2.934,-9.0156 2.934,-14.7773 V 22.0039 h -14.356 v 27.7617 c 0,8.5821 0,16.7578 -9.109,16.7578 -2.516,0 -5.137,-0.8398 -7.125,-2.414 -4.297,-3.3477 -4.61,-8.7969 -4.61,-17.4883 V 22.0039 H 140 v 54.2656 h 13.305 v -7.9609" /><path
        id="path20"
        style="fill:#231f20;fill-opacity:1;fill-rule:nonzero;stroke:none"
        d="m 216.164,42.4297 c 1.57,-6.4922 5.867,-10.2617 11.524,-10.2617 7.019,0 11.941,6.0742 11.941,16.8633 0,11.5234 -4.399,17.4921 -11.941,17.4921 -7.547,0 -12.047,-6.3867 -12.047,-16.1328 0,-3.1445 -0.211,-4.9218 0.523,-7.9609 z M 240.57,29.9609 c -4.289,-6.0742 -10.578,-9.2187 -17.074,-9.2187 -12.574,0 -22.625,10.8984 -22.625,28.7109 0,18.0157 9.637,28.0742 22.938,28.0742 6.289,0 11.32,-2.5156 15.718,-7.5468 v 27.0312 h 14.352 V 22.0039 H 240.57 v 7.957" /><path
        id="path22"
        style="fill:#231f20;fill-opacity:1;fill-rule:nonzero;stroke:none"
        d="m 300.813,53.8477 c -0.211,8.4882 -4.821,12.6757 -10.793,12.6757 -6.602,0 -10.79,-5.6562 -10.79,-11.7265 v -0.9492 z m -21.688,-8.7969 c 0.211,-7.961 4.609,-13.4102 11.734,-13.4102 4.821,0 7.649,2.5078 9.114,7.6446 l 14.355,-2.4102 c -3.777,-10.6836 -11.844,-16.2305 -23.785,-16.2305 -16.867,0 -26.086,11.2032 -26.086,28.0743 0,16.9648 9.43,28.8085 24.832,28.8085 16.551,0 25.77,-11.3164 25.77,-31.0117 v -1.4648 h -35.934" /><path
        id="path24"
        style="fill:#231f20;fill-opacity:1;fill-rule:nonzero;stroke:none"
        d="m 357.07,60.6523 c -1.254,4.6133 -4.711,6.6055 -10.261,6.6055 -6.289,0 -9.641,-1.5742 -9.641,-4.6133 0,-2.0898 2.406,-3.5507 5.762,-4.2968 19.8,-4.3946 29.648,-7.3243 29.648,-19.375 0,-10.2618 -8.906,-18.2305 -24.617,-18.2305 -14.148,0 -23.367,5.7617 -26.191,16.7695 l 14.457,2.1953 c 1.363,-5.7617 5.023,-8.4882 11.523,-8.4882 6.703,0 10.473,2.1015 10.473,5.7617 0,3.6718 -3.035,4.082 -14.352,6.6054 -13.406,2.9297 -20.117,7.9571 -20.117,17.2813 0,9.5312 7.441,16.6601 23.055,16.6601 13.507,0 20.949,-4.1875 23.879,-14.3515 L 357.07,60.6523" /><path
        id="path26"
        style="fill:#231f20;fill-opacity:1;fill-rule:nonzero;stroke:none"
        d="m 384.625,22.0039 v 54.2656 h 14.352 V 22.0039 Z m 0,61.5977 v 13.4101 h 14.352 V 83.6016 h -14.352" /><path
        id="path28"
        style="fill:#231f20;fill-opacity:1;fill-rule:nonzero;stroke:none"
        d="m 426.945,68.3086 c 4.715,6.0781 10.899,9.2187 18.016,9.2187 6.711,0 12.363,-2.7226 15.297,-7.0195 2.726,-3.9844 2.937,-9.0156 2.937,-14.7773 V 22.0039 H 448.84 v 27.7617 c 0,8.5821 0,16.7578 -9.113,16.7578 -2.516,0 -5.137,-0.8398 -7.125,-2.414 -4.297,-3.3477 -4.61,-8.7969 -4.61,-17.4883 V 22.0039 h -14.355 v 54.2656 h 13.308 v -7.9609" /><path
        id="path30"
        style="fill:#231f20;fill-opacity:1;fill-rule:nonzero;stroke:none"
        d="m 506.352,60.6523 c -1.254,4.6133 -4.711,6.6055 -10.262,6.6055 -6.289,0 -9.641,-1.5742 -9.641,-4.6133 0,-2.0898 2.41,-3.5507 5.762,-4.2968 19.801,-4.3946 29.648,-7.3243 29.648,-19.375 0,-10.2618 -8.906,-18.2305 -24.617,-18.2305 -14.144,0 -23.363,5.7617 -26.191,16.7695 l 14.457,2.1953 c 1.363,-5.7617 5.023,-8.4882 11.523,-8.4882 6.703,0 10.473,2.1015 10.473,5.7617 0,3.6718 -3.035,4.082 -14.348,6.6054 -13.41,2.9297 -20.117,7.9571 -20.117,17.2813 0,9.5312 7.441,16.6601 23.051,16.6601 13.512,0 20.953,-4.1875 23.883,-14.3515 l -13.621,-2.5235" /><path
        id="path32"
        style="fill:#231f20;fill-opacity:1;fill-rule:nonzero;stroke:none"
        d="m 549.199,76.2695 h 9.746 V 64.9492 h -9.746 V 37.5117 c 0,-3.1484 1.364,-4.9336 3.985,-4.9336 1.988,0 4.082,0.8399 5.761,1.4766 l 1.254,-11.1055 c -3.144,-1.3672 -7.332,-2.207 -11.211,-2.207 -14.558,0 -14.14,10.1641 -14.14,20.4297 v 23.7773 h -6.703 v 11.3203 h 6.703 v 10.7891 l 14.351,8.4883 V 76.2695" /><path
        id="path34"
        style="fill:#231f20;fill-opacity:1;fill-rule:nonzero;stroke:none"
        d="m 568.793,22.0039 v 54.2656 h 14.352 V 22.0039 Z m 0,61.5977 v 13.4101 h 14.352 V 83.6016 h -14.352" /><path
        id="path36"
        style="fill:#231f20;fill-opacity:1;fill-rule:nonzero;stroke:none"
        d="m 613.207,76.2695 h 9.746 V 64.9492 h -9.746 V 37.5117 c 0,-3.1484 1.363,-4.9336 3.984,-4.9336 1.989,0 4.082,0.8399 5.762,1.4766 l 1.258,-11.1055 c -3.145,-1.3672 -7.336,-2.207 -11.211,-2.207 -14.562,0 -14.141,10.1641 -14.141,20.4297 v 23.7773 h -6.707 v 11.3203 h 6.707 v 10.7891 l 14.348,8.4883 V 76.2695" /><path
        id="path38"
        style="fill:#231f20;fill-opacity:1;fill-rule:nonzero;stroke:none"
        d="m 667.586,76.2695 h 14.348 V 22.0039 h -13.407 v 8.1719 c -3.98,-5.8711 -10.793,-9.4336 -18.019,-9.4336 -6.492,0 -12.051,2.832 -14.981,7.1289 -2.621,3.875 -3.043,8.8008 -3.043,14.1406 V 76.2695 H 646.84 V 51.3398 c 0,-11.1054 -0.731,-19.5937 9.012,-19.5937 4.921,0 9.32,2.9336 10.789,7.5391 0.836,2.5195 0.945,7.4414 0.945,14.1445 v 22.8398" /><path
        id="path40"
        style="fill:#231f20;fill-opacity:1;fill-rule:nonzero;stroke:none"
        d="m 712.105,76.2695 h 9.747 V 64.9492 h -9.747 V 37.5117 c 0,-3.1484 1.364,-4.9336 3.985,-4.9336 1.988,0 4.082,0.8399 5.762,1.4766 l 1.253,-11.1055 c -3.144,-1.3672 -7.332,-2.207 -11.21,-2.207 -14.559,0 -14.141,10.1641 -14.141,20.4297 v 23.7773 h -6.703 v 11.3203 h 6.703 v 10.7891 l 14.351,8.4883 V 76.2695" /><path
        id="path42"
        style="fill:#231f20;fill-opacity:1;fill-rule:nonzero;stroke:none"
        d="m 754.742,76.2695 h 7.965 v 4.1914 c 0,10.3672 2.723,17.8086 16.973,17.8086 3.664,0 7.957,-0.6328 11.73,-1.7851 l -1.883,-10.0586 c -2.101,0.5273 -4.82,0.8398 -6.5,0.8398 -5.339,0 -5.972,-3.1445 -5.972,-7.1211 v -3.875 h 10.793 V 64.9492 H 777.055 V 22.0039 h -14.348 v 42.9453 h -7.965 v 11.3203" /><path
        id="path44"
        style="fill:#231f20;fill-opacity:1;fill-rule:nonzero;stroke:none"
        d="m 825.246,86.0156 v 12.2539 h 12.363 V 86.0156 Z m -22,0 v 12.2539 h 12.359 V 86.0156 Z m 27.238,-9.7461 h 14.352 V 22.0039 h -13.41 v 8.1719 c -3.981,-5.8711 -10.789,-9.4336 -18.016,-9.4336 -6.496,0 -12.051,2.832 -14.98,7.1289 -2.625,3.875 -3.043,8.8008 -3.043,14.1406 v 34.2578 h 14.355 V 51.3398 c 0,-11.1054 -0.734,-19.5937 9.008,-19.5937 4.922,0 9.32,2.9336 10.793,7.5391 0.832,2.5195 0.941,7.4414 0.941,14.1445 v 22.8398" /><path
        id="path46"
        style="fill:#231f20;fill-opacity:1;fill-rule:nonzero;stroke:none"
        d="m 872.91,68.6211 c 3.457,5.6562 6.391,8.9062 12.258,8.9062 2.934,0 6.707,-0.9453 9.535,-2.625 l -4.508,-12.5664 c -2.093,1.3633 -4.609,2.3008 -6.804,2.3008 -9.012,0 -9.539,-10.1562 -9.539,-25.875 V 22.0039 h -14.348 v 54.2656 h 13.406 v -7.6484" /><path
        id="path48"
        style="fill:#231f20;fill-opacity:1;fill-rule:nonzero;stroke:none"
        d="m 945.195,65.2656 h 11.321 c 11.523,0 19.375,-0.414 19.375,10.2696 0,5.9687 -4.504,8.8007 -12.883,8.8007 H 945.195 Z M 930.117,22.0039 v 75.0078 h 31.848 c 11.414,0 18.953,-0.8398 24.305,-6.707 3.351,-3.7734 5.234,-8.8008 5.234,-14.3477 0,-11.2109 -6.805,-18.9648 -19.902,-20.8515 8.164,-4.8242 11.523,-9.9492 16.757,-18.4336 l 9.114,-14.668 h -18.02 l -10.996,16.3359 c -8.699,13 -9.746,14.9883 -20.117,14.9883 h -3.145 V 22.0039 h -15.078" /><path
        id="path50"
        style="fill:#231f20;fill-opacity:1;fill-rule:nonzero;stroke:none"
        d="m 1005.23,22.0039 v 54.2656 h 14.36 V 22.0039 Z m 0,61.5977 v 13.4101 h 14.36 V 83.6016 h -14.36" /><path
        id="path52"
        style="fill:#231f20;fill-opacity:1;fill-rule:nonzero;stroke:none"
        d="m 1065.04,60.6523 c -1.26,4.6133 -4.71,6.6055 -10.26,6.6055 -6.29,0 -9.64,-1.5742 -9.64,-4.6133 0,-2.0898 2.41,-3.5507 5.76,-4.2968 19.8,-4.3946 29.65,-7.3243 29.65,-19.375 0,-10.2618 -8.9,-18.2305 -24.62,-18.2305 -14.14,0 -23.36,5.7617 -26.19,16.7695 l 14.45,2.1953 c 1.37,-5.7617 5.03,-8.4882 11.53,-8.4882 6.71,0 10.48,2.1015 10.48,5.7617 0,3.6718 -3.04,4.082 -14.36,6.6054 -13.41,2.9297 -20.11,7.9571 -20.11,17.2813 0,9.5312 7.44,16.6601 23.05,16.6601 13.52,0 20.95,-4.1875 23.89,-14.3515 l -13.63,-2.5235" /><path
        id="path54"
        style="fill:#231f20;fill-opacity:1;fill-rule:nonzero;stroke:none"
        d="m 1092.6,22.0039 v 54.2656 h 14.36 V 22.0039 Z m 0,61.5977 v 13.4101 h 14.36 V 83.6016 h -14.36" /><path
        id="path56"
        style="fill:#231f20;fill-opacity:1;fill-rule:nonzero;stroke:none"
        d="m 1121.62,22.0039 v 75.0078 h 14.35 V 57.1953 l 16.87,19.0742 h 17.7 L 1152,56.4648 1171.8,22.0039 h -15.51 l -13.62,24.4102 -6.7,-7.0196 V 22.0039 h -14.35" /><path
        id="path58"
        style="fill:#231f20;fill-opacity:1;fill-rule:nonzero;stroke:none"
        d="m 1202.5,32.5781 c 7.64,0 13.3,5.9766 13.3,16.875 0,10.0508 -5.45,16.2305 -13.2,16.2305 -7.75,0 -13.31,-6.0742 -13.31,-16.5508 0,-10.5781 5.67,-16.5547 13.21,-16.5547 z m 0.1,44.9492 c 17.07,0 27.97,-12.4687 27.97,-28.289 0,-15.7149 -11.21,-28.4961 -28.07,-28.4961 -16.03,0 -27.97,10.6836 -27.97,29.2266 0,14.9804 10.79,27.5585 28.07,27.5585" /><path
        id="path60"
        style="fill:#231f20;fill-opacity:1;fill-rule:nonzero;stroke:none"
        d="m 1257.81,38.4453 c 2.31,-4.082 6.29,-6.2773 10.38,-6.2773 6.7,0 11.41,5.7617 11.41,16.8633 0,11.3125 -4.4,17.4921 -11.94,17.4921 -7.44,0 -12.16,-5.9687 -12.16,-16.1328 0,-4.2968 0.22,-8.2734 2.31,-11.9453 z m -3.14,-16.4414 h -13.41 v 75.0078 h 14.35 V 69.9805 c 4.4,5.0312 9.43,7.5468 15.82,7.5468 13.41,0 22.94,-10.2695 22.94,-27.7617 0,-18.0195 -9.95,-29.0234 -22.94,-29.0234 -5.97,0 -12.36,3.1445 -16.76,9.2187 v -7.957" /><path
        id="path62"
        style="fill:#231f20;fill-opacity:1;fill-rule:nonzero;stroke:none"
        d="m 1338.58,53.8477 c -0.22,8.4882 -4.82,12.6757 -10.79,12.6757 -6.6,0 -10.79,-5.6562 -10.79,-11.7265 v -0.9492 z m -21.69,-8.7969 c 0.21,-7.961 4.61,-13.4102 11.74,-13.4102 4.81,0 7.64,2.5078 9.11,7.6446 l 14.35,-2.4102 c -3.76,-10.6836 -11.83,-16.2305 -23.77,-16.2305 -16.88,0 -26.1,11.2032 -26.1,28.0743 0,16.9648 9.44,28.8085 24.84,28.8085 16.55,0 25.77,-11.3164 25.77,-31.0117 v -1.4648 h -35.94" /><path
        id="path64"
        style="fill:#231f20;fill-opacity:1;fill-rule:nonzero;stroke:none"
        d="m 1374.3,22.0039 -17.18,54.2656 h 13.94 l 10.26,-35.5156 9.33,35.5156 h 13.83 l 9.11,-35.5156 10.37,35.5156 h 14.15 l -17.5,-54.2656 h -13.72 l -9.43,34.9883 -9.22,-34.9883 h -13.94" /><path
        id="path66"
        style="fill:#231f20;fill-opacity:1;fill-rule:nonzero;stroke:none"
        d="m 1478.34,53.8477 c -0.22,8.4882 -4.83,12.6757 -10.8,12.6757 -6.6,0 -10.79,-5.6562 -10.79,-11.7265 v -0.9492 z m -21.69,-8.7969 c 0.21,-7.961 4.61,-13.4102 11.73,-13.4102 4.82,0 7.65,2.5078 9.12,7.6446 l 14.35,-2.4102 c -3.77,-10.6836 -11.84,-16.2305 -23.78,-16.2305 -16.87,0 -26.09,11.2032 -26.09,28.0743 0,16.9648 9.43,28.8085 24.83,28.8085 16.55,0 25.77,-11.3164 25.77,-31.0117 v -1.4648 h -35.93" /><path
        id="path68"
        style="fill:#231f20;fill-opacity:1;fill-rule:nonzero;stroke:none"
        d="m 1517.09,68.6211 c 3.46,5.6562 6.39,8.9062 12.26,8.9062 2.93,0 6.7,-0.9453 9.53,-2.625 l -4.5,-12.5664 c -2.1,1.3633 -4.61,2.3008 -6.82,2.3008 -9,0 -9.53,-10.1562 -9.53,-25.875 V 22.0039 h -14.35 v 54.2656 h 13.41 v -7.6484" /><path
        id="path70"
        style="fill:#231f20;fill-opacity:1;fill-rule:nonzero;stroke:none"
        d="m 1562.04,76.2695 h 9.74 V 64.9492 h -9.74 V 37.5117 c 0,-3.1484 1.36,-4.9336 3.98,-4.9336 1.99,0 4.08,0.8399 5.76,1.4766 l 1.26,-11.1055 c -3.14,-1.3672 -7.33,-2.207 -11.21,-2.207 -14.56,0 -14.15,10.1641 -14.15,20.4297 v 23.7773 h -6.7 v 11.3203 h 6.7 v 10.7891 l 14.36,8.4883 V 76.2695" /><path
        id="path72"
        style="fill:#231f20;fill-opacity:1;fill-rule:nonzero;stroke:none"
        d="m 1616.4,76.2695 h 14.36 V 22.0039 h -13.41 v 8.1719 c -3.99,-5.8711 -10.79,-9.4336 -18.02,-9.4336 -6.49,0 -12.05,2.832 -14.98,7.1289 -2.62,3.875 -3.04,8.8008 -3.04,14.1406 v 34.2578 h 14.35 V 51.3398 c 0,-11.1054 -0.73,-19.5937 9.01,-19.5937 4.92,0 9.33,2.9336 10.79,7.5391 0.84,2.5195 0.94,7.4414 0.94,14.1445 v 22.8398" /><path
        id="path74"
        style="fill:#231f20;fill-opacity:1;fill-rule:nonzero;stroke:none"
        d="m 1658.84,68.3086 c 4.71,6.0781 10.89,9.2187 18.02,9.2187 6.7,0 12.36,-2.7226 15.29,-7.0195 2.73,-3.9844 2.93,-9.0156 2.93,-14.7773 V 22.0039 h -14.34 v 27.7617 c 0,8.5821 0,16.7578 -9.12,16.7578 -2.51,0 -5.13,-0.8398 -7.12,-2.414 -4.3,-3.3477 -4.61,-8.7969 -4.61,-17.4883 V 22.0039 h -14.36 v 54.2656 h 13.31 v -7.9609" /><path
        id="path76"
        style="fill:#231f20;fill-opacity:1;fill-rule:nonzero;stroke:none"
        d="m 1730.71,33.418 c 6.7,0 12.57,5.5547 12.57,16.6601 0,10.1641 -4.72,16.4453 -12.47,16.4453 -7.44,0 -11.73,-6.3867 -11.73,-16.2421 0,-10.8868 4.5,-16.8633 11.63,-16.8633 z m 13.09,42.8515 h 13.52 V 27.5586 C 1757.32,9.01563 1752.39,0 1731.33,0 c -16.75,0 -25.14,6.17969 -25.14,16.7656 v 1.6719 l 16.45,-1.9922 c 0.52,-3.457 1.89,-5.4375 8.49,-5.4375 10.99,0 11.83,4.8125 11.83,11.9414 v 7.8516 c -4.29,-5.8711 -9.85,-8.7969 -16.44,-8.7969 -12.68,0 -22.22,11.1016 -22.22,27.2344 0,18.543 10.06,28.289 22.95,28.289 7.01,0 12.26,-3.0351 16.55,-8.8085 v 7.5507" /><path
        id="path78"
        style="fill:#d3d2d2;fill-opacity:1;fill-rule:nonzero;stroke:none"
        d="M 0.9375,236.262 H 723.438 v 375.82 C 538.574,611.145 253.73,569.152 0.9375,236.262" /><path
        id="path80"
        style="fill:#254aa5;fill-opacity:1;fill-rule:nonzero;stroke:none"
        d="M 0.0976563,612.93 V 236.262 H 0.9375 C 253.73,569.152 538.574,611.145 723.438,612.082 v 0.848 H 0.0976563" /><path
        id="path82"
        style="fill:none;stroke:#d3d2d2;stroke-width:1;stroke-linecap:butt;stroke-linejoin:miter;stroke-miterlimit:4;stroke-dasharray:none;stroke-opacity:1"
        d="M 723.438,612.082 C 538.574,611.145 253.73,569.152 0.9375,236.262" /><path
        id="path84"
        style="fill:#ffffff;fill-opacity:1;fill-rule:nonzero;stroke:none"
        d="m 0,535.586 h 723.438 v 10.625 H 0 Z" /><path
        id="path86"
        style="fill:#ffffff;fill-opacity:1;fill-rule:nonzero;stroke:none"
        d="m 0,457.773 h 723.438 v 10.625 H 0 Z" /><path
        id="path88"
        style="fill:#ffffff;fill-opacity:1;fill-rule:nonzero;stroke:none"
        d="m 0,380.43 h 723.438 v 10.625 H 0 Z" /><path
        id="path90"
        style="fill:#ffffff;fill-opacity:1;fill-rule:nonzero;stroke:none"
        d="M 0,302.305 H 723.438 V 312.93 H 0 Z" /><path
        id="path92"
        style="fill:#254aa5;fill-opacity:1;fill-rule:nonzero;stroke:none"
        d="m 532.793,526.906 c 0,-13.117 -10.625,-23.742 -23.738,-23.742 -13.098,0 -23.723,10.625 -23.723,23.742 0,13.106 10.625,23.711 23.723,23.711 13.113,0 23.738,-10.605 23.738,-23.711" /><path
        id="path94"
        style="fill:none;stroke:#254aa5;stroke-width:1;stroke-linecap:butt;stroke-linejoin:miter;stroke-miterlimit:4;stroke-dasharray:none;stroke-opacity:1"
        d="m 532.793,526.906 c 0,-13.117 -10.625,-23.742 -23.738,-23.742 -13.098,0 -23.723,10.625 -23.723,23.742 0,13.106 10.625,23.711 23.723,23.711 13.113,0 23.738,-10.605 23.738,-23.711 z" /><path
        id="path96"
        style="fill:#254aa5;fill-opacity:1;fill-rule:nonzero;stroke:none"
        d="m 452.773,248.738 c 0.059,0.168 0.137,0.305 0.227,0.473 61.609,109.91 64.383,240.73 10.535,246.902 -32.715,3.77 -67.988,2.969 -123.691,-16.855 -7.93,-2.746 -22.071,-12.16 -2.821,-8.672 23.934,4.836 82.02,11.387 107.997,-0.586 41.269,-18.992 30.898,-112.012 0.734,-218.789 -2.551,-9.473 0.711,-11.953 7.019,-2.473" /><path
        id="path98"
        style="fill:none;stroke:#254aa5;stroke-width:1;stroke-linecap:butt;stroke-linejoin:miter;stroke-miterlimit:4;stroke-dasharray:none;stroke-opacity:1"
        d="m 452.773,248.738 c 0.059,0.168 0.137,0.305 0.227,0.473 61.609,109.91 64.383,240.73 10.535,246.902 -32.715,3.77 -67.988,2.969 -123.691,-16.855 -7.93,-2.746 -22.071,-12.16 -2.821,-8.672 23.934,4.836 82.02,11.387 107.997,-0.586 41.269,-18.992 30.898,-112.012 0.734,-218.789 -2.551,-9.473 0.711,-11.953 7.019,-2.473 z" /><path
        id="path100"
        style="fill:#254aa5;fill-opacity:1;fill-rule:nonzero;stroke:none"
        d="m 569.648,251.211 c -30.175,106.777 -40.566,199.797 0.723,218.789 25.977,11.973 84.063,5.422 108.008,0.586 19.258,-3.488 5.117,5.926 -2.813,8.672 -55.742,19.824 -90.996,20.625 -123.73,16.855 -53.809,-6.172 -51.063,-136.992 10.598,-246.902 0.046,-0.168 0.105,-0.305 0.183,-0.473 6.348,-9.48 9.563,-7 7.031,2.473" /><path
        id="path102"
        style="fill:none;stroke:#254aa5;stroke-width:1;stroke-linecap:butt;stroke-linejoin:miter;stroke-miterlimit:4;stroke-dasharray:none;stroke-opacity:1"
        d="m 569.648,251.211 c -30.175,106.777 -40.566,199.797 0.723,218.789 25.977,11.973 84.063,5.422 108.008,0.586 19.258,-3.488 5.117,5.926 -2.813,8.672 -55.742,19.824 -90.996,20.625 -123.73,16.855 -53.809,-6.172 -51.063,-136.992 10.598,-246.902 0.046,-0.168 0.105,-0.305 0.183,-0.473 6.348,-9.48 9.563,-7 7.031,2.473 z" /><path
        id="path104"
        style="fill:#254aa5;fill-opacity:1;fill-rule:nonzero;stroke:none"
        d="m 933.242,541.965 h 29.035 c 33.321,0 65.583,-3.223 65.583,-37.61 0,-31.718 -33.876,-41.25 -66.669,-41.25 h -27.949 z m -99.98,-304.231 h 158.027 c 67.191,0 146.211,18.809 146.211,108.575 0,45.703 -25.8,72.578 -75.78,82.793 v 1.074 c 41.93,13.965 66.12,40.312 66.12,87.617 0,64.504 -52.15,95.129 -122.03,95.129 H 833.262 Z m 99.98,159.102 h 30.645 c 34.394,0 73.643,-3.75 73.643,-44.609 0,-38.164 -38.175,-43.536 -74.717,-43.536 h -29.571 v 88.145" /><path
        id="path106"
        style="fill:#254aa5;fill-opacity:1;fill-rule:nonzero;stroke:none"
        d="m 1441.2,237.734 h 99.97 v 159.297 h 20.96 c 37.09,0 49.99,-27.07 70.42,-91.562 l 21.5,-67.735 h 104.28 l -36.55,102.129 c -18.81,45.684 -20.96,81.114 -53.22,89.707 v 1.075 c 48.38,11.289 72.04,37.695 72.04,87.675 0,64.504 -54.31,94.602 -120.95,94.602 H 1441.2 Z m 98.18,304.231 h 28.12 c 38.17,0 73.11,-6.445 73.11,-41.379 0,-42.461 -41.49,-37.266 -73.75,-37.266 h -26.35 l -1.13,78.645" /><path
        id="path108"
        style="fill:#254aa5;fill-opacity:1;fill-rule:nonzero;stroke:none"
        d="m 1393.77,612.922 0.28,-70.469 -49.79,-0.117 c -24.72,0 -34.4,-14.883 -34.4,-42.297 v -36.934 h 88.39 v -66.074 h -88.39 V 237.734 h -96.75 v 159.297 h -56.98 v 66.074 h 58.59 v 36.934 c 0,83.313 39.24,112.336 116.64,112.336 l 62.41,0.547" /><path
        id="path110"
        style="fill:#231f20;fill-opacity:1;fill-rule:nonzero;stroke:none"
        d="M 1.15234,151.68 H 1757.8823 v 5 H 1.15234 Z" /></g></g></svg>